<svg id="visual" viewBox="0 0 960 540" width="960" height="540" xmlns="http://www.w3.org/2000/svg" xmlns:xlink="http://www.w3.org/1999/xlink" version="1.1"><rect x="0" y="0" width="960" height="540" fill="#001220"></rect><defs><linearGradient id="grad1_0" x1="43.8%" y1="0%" x2="100%" y2="100%"><stop offset="14.444444444444446%" stop-color="#001220" stop-opacity="1"></stop><stop offset="85.55555555555554%" stop-color="#001220" stop-opacity="1"></stop></linearGradient></defs><defs><linearGradient id="grad2_0" x1="0%" y1="0%" x2="56.3%" y2="100%"><stop offset="14.444444444444446%" stop-color="#001220" stop-opacity="1"></stop><stop offset="85.55555555555554%" stop-color="#001220" stop-opacity="1"></stop></linearGradient></defs><g transform="translate(960, 0)"><path d="M0 486C-65.1 481.4 -130.3 476.7 -186 449C-241.7 421.3 -288 370.4 -318.9 318.9C-349.9 267.4 -365.5 215.1 -390.8 161.9C-416.1 108.6 -451 54.3 -486 0L0 0Z" fill="#FBAE3C"></path></g><g transform="translate(0, 540)"><path d="M0 -486C65.8 -481 131.6 -476.1 186 -449C240.4 -421.9 283.5 -372.7 326 -326C368.5 -279.2 410.4 -234.9 437 -181C463.6 -127.1 474.8 -63.5 486 0L0 0Z" fill="#FBAE3C"></path></g></svg>