<svg id="visual" viewBox="0 0 900 900" width="900" height="900" xmlns="http://www.w3.org/2000/svg" xmlns:xlink="http://www.w3.org/1999/xlink" version="1.1"><rect x="0" y="0" width="900" height="900" fill="#002233"></rect><path d="M0 348L18.8 366.3C37.7 384.7 75.3 421.3 112.8 481.2C150.3 541 187.7 624 225.2 672.3C262.7 720.7 300.3 734.3 337.8 675.5C375.3 616.7 412.7 485.3 450.2 443.5C487.7 401.7 525.3 449.3 562.8 500C600.3 550.7 637.7 604.3 675.2 613.5C712.7 622.7 750.3 587.3 787.8 558.2C825.3 529 862.7 506 881.3 494.5L900 483" fill="none" stroke-linecap="round" stroke-linejoin="miter" stroke="#0066FF" stroke-width="40"></path></svg>